<svg width="394" height="374" viewBox="0 0 394 374" fill="none" xmlns="http://www.w3.org/2000/svg">
<rect width="31.4639" height="309.155" transform="translate(0.00012207 42.6212)" fill="#069B7E"/>
<rect width="6.29279" height="271.453" transform="translate(12.5837 20)" fill="#069B7E"/>
<rect width="31.2327" height="45.4409" transform="translate(38 56.2449)" fill="#F13745"/>
<rect width="5.20544" height="90.8818" transform="translate(51.0137 31)" fill="#F13745"/>
<rect width="31.4639" height="309.155" transform="translate(219 38.6212)" fill="#FF4757"/>
<rect width="6.29279" height="271.453" transform="translate(231.584 16)" fill="#FF4757"/>
<rect width="31.2327" height="45.4409" transform="translate(255 163.245)" fill="#069B7E"/>
<rect width="5.20544" height="90.8818" transform="translate(268.014 138)" fill="#069B7E"/>
<rect width="31" height="64" transform="translate(327 53)" fill="#069B7E"/>
<rect width="5" height="106" transform="translate(340 31)" fill="#069B7E"/>
<rect width="31" height="64" transform="translate(327 257)" fill="#FF4757"/>
<rect width="5" height="106" transform="translate(340 235)" fill="#FF4757"/>
<rect width="31.2327" height="45.4409" transform="translate(291 117.245)" fill="#069B7E"/>
<rect width="5.20544" height="90.8818" transform="translate(304.014 92)" fill="#069B7E"/>
<rect width="31.2327" height="45.4409" transform="matrix(1 0 0 -1 255 211.637)" fill="#069B7E"/>
<rect width="31.2327" height="45.4409" transform="matrix(1 0 0 -1 291 257.637)" fill="#FF4757"/>
<rect width="5.20544" height="90.8818" transform="matrix(1 0 0 -1 304.014 282.882)" fill="#FF4757"/>
<rect width="31.2327" height="45.4409" transform="translate(75 101.245)" fill="#F13745"/>
<rect width="5.20544" height="90.8818" transform="translate(88.0137 76)" fill="#F13745"/>
<rect width="31.2327" height="45.4409" transform="translate(111 145.245)" fill="#F13745"/>
<rect width="5.20544" height="90.8818" transform="translate(124.014 120)" fill="#F13745"/>
<rect width="31.2327" height="45.4409" transform="translate(147 105.245)" fill="#069B7E"/>
<rect width="5.20544" height="90.8818" transform="translate(160.014 80)" fill="#069B7E"/>
<rect width="31.2327" height="45.4409" transform="translate(183 58.2449)" fill="#069B7E"/>
<rect width="5.20544" height="90.8818" transform="translate(196.014 33)" fill="#069B7E"/>
<rect width="31" height="39.8491" transform="translate(363 13.6981)" fill="#069B7E"/>
<rect width="5" height="66" transform="translate(376)" fill="#069B7E"/>
<rect width="31" height="39.8491" transform="translate(363 320.698)" fill="#FF4757"/>
<rect width="5" height="66" transform="translate(376 308)" fill="#FF4757"/>
</svg>
